<mxfile host="app.diagrams.net" modified="2023-01-06T06:11:20.280Z" agent="5.0 (Windows NT 10.0; Win64; x64) AppleWebKit/537.36 (KHTML, like Gecko) Chrome/108.0.0.0 Safari/537.36" etag="1pMDVfIs9DFe68e9Pd3Y" version="20.6.2" type="github">
  <diagram id="1bny-kd-aG_qWNULpiLh" name="第 1 页">
    <mxGraphModel dx="2651" dy="982" grid="1" gridSize="10" guides="1" tooltips="1" connect="1" arrows="1" fold="1" page="1" pageScale="1" pageWidth="827" pageHeight="1169" math="0" shadow="0">
      <root>
        <mxCell id="0" />
        <mxCell id="1" parent="0" />
        <mxCell id="4_Z-v-eUMZZP_KY4kg9S-1" value="ProviderType(支持接入的云类型)" style="swimlane;fontStyle=1;align=center;verticalAlign=top;childLayout=stackLayout;horizontal=1;startSize=26;horizontalStack=0;resizeParent=1;resizeParentMax=0;resizeLast=0;collapsible=1;marginBottom=0;" vertex="1" parent="1">
          <mxGeometry x="-120" y="30" width="370" height="182" as="geometry" />
        </mxCell>
        <mxCell id="4_Z-v-eUMZZP_KY4kg9S-2" value="+ Name string //eg.华为公有云&#xa;+ Type string //eg.云上栏山,视频超算，原型机房&#xa;+ SubType string //eg.localcloud publiccloud&#xa;//是否接入，这里关闭，需要判断这个云上有没有资源已经被创建了&#xa;+ Accessible bool " style="text;strokeColor=none;fillColor=none;align=left;verticalAlign=top;spacingLeft=4;spacingRight=4;overflow=hidden;rotatable=0;points=[[0,0.5],[1,0.5]];portConstraint=eastwest;" vertex="1" parent="4_Z-v-eUMZZP_KY4kg9S-1">
          <mxGeometry y="26" width="370" height="94" as="geometry" />
        </mxCell>
        <mxCell id="4_Z-v-eUMZZP_KY4kg9S-3" value="" style="line;strokeWidth=1;fillColor=none;align=left;verticalAlign=middle;spacingTop=-1;spacingLeft=3;spacingRight=3;rotatable=0;labelPosition=right;points=[];portConstraint=eastwest;strokeColor=inherit;" vertex="1" parent="4_Z-v-eUMZZP_KY4kg9S-1">
          <mxGeometry y="120" width="370" height="8" as="geometry" />
        </mxCell>
        <mxCell id="4_Z-v-eUMZZP_KY4kg9S-4" value="+ method(type): type" style="text;strokeColor=none;fillColor=none;align=left;verticalAlign=top;spacingLeft=4;spacingRight=4;overflow=hidden;rotatable=0;points=[[0,0.5],[1,0.5]];portConstraint=eastwest;" vertex="1" parent="4_Z-v-eUMZZP_KY4kg9S-1">
          <mxGeometry y="128" width="370" height="54" as="geometry" />
        </mxCell>
        <mxCell id="4_Z-v-eUMZZP_KY4kg9S-18" value="Audit(商品审核)" style="swimlane;fontStyle=1;align=center;verticalAlign=top;childLayout=stackLayout;horizontal=1;startSize=26;horizontalStack=0;resizeParent=1;resizeParentMax=0;resizeLast=0;collapsible=1;marginBottom=0;" vertex="1" parent="1">
          <mxGeometry x="-346" y="1150" width="370" height="202" as="geometry" />
        </mxCell>
        <mxCell id="4_Z-v-eUMZZP_KY4kg9S-19" value="CommodityId string //商品id (CommodityName,CommodityType,flavor(规格))&#xa;	Operator string //操作类型，上架下家&#xa;	CommiterId string //申请人&#xa;	Status string //审批状态&#xa;	StatusTime string //审批时间&#xa;	AuditorId string //审批人&#xa;	Message string // 审批备注" style="text;strokeColor=none;fillColor=none;align=left;verticalAlign=top;spacingLeft=4;spacingRight=4;overflow=hidden;rotatable=0;points=[[0,0.5],[1,0.5]];portConstraint=eastwest;" vertex="1" parent="4_Z-v-eUMZZP_KY4kg9S-18">
          <mxGeometry y="26" width="370" height="114" as="geometry" />
        </mxCell>
        <mxCell id="4_Z-v-eUMZZP_KY4kg9S-20" value="" style="line;strokeWidth=1;fillColor=none;align=left;verticalAlign=middle;spacingTop=-1;spacingLeft=3;spacingRight=3;rotatable=0;labelPosition=right;points=[];portConstraint=eastwest;strokeColor=inherit;" vertex="1" parent="4_Z-v-eUMZZP_KY4kg9S-18">
          <mxGeometry y="140" width="370" height="8" as="geometry" />
        </mxCell>
        <mxCell id="4_Z-v-eUMZZP_KY4kg9S-21" value="+ method(type): type" style="text;strokeColor=none;fillColor=none;align=left;verticalAlign=top;spacingLeft=4;spacingRight=4;overflow=hidden;rotatable=0;points=[[0,0.5],[1,0.5]];portConstraint=eastwest;" vertex="1" parent="4_Z-v-eUMZZP_KY4kg9S-18">
          <mxGeometry y="148" width="370" height="54" as="geometry" />
        </mxCell>
        <mxCell id="4_Z-v-eUMZZP_KY4kg9S-23" value="PlatformConfig(平台设置)" style="swimlane;fontStyle=1;align=center;verticalAlign=top;childLayout=stackLayout;horizontal=1;startSize=26;horizontalStack=0;resizeParent=1;resizeParentMax=0;resizeLast=0;collapsible=1;marginBottom=0;" vertex="1" parent="1">
          <mxGeometry x="430" y="60" width="370" height="122" as="geometry" />
        </mxCell>
        <mxCell id="4_Z-v-eUMZZP_KY4kg9S-24" value="FeeRatio string //抽成比例" style="text;strokeColor=none;fillColor=none;align=left;verticalAlign=top;spacingLeft=4;spacingRight=4;overflow=hidden;rotatable=0;points=[[0,0.5],[1,0.5]];portConstraint=eastwest;" vertex="1" parent="4_Z-v-eUMZZP_KY4kg9S-23">
          <mxGeometry y="26" width="370" height="34" as="geometry" />
        </mxCell>
        <mxCell id="4_Z-v-eUMZZP_KY4kg9S-25" value="" style="line;strokeWidth=1;fillColor=none;align=left;verticalAlign=middle;spacingTop=-1;spacingLeft=3;spacingRight=3;rotatable=0;labelPosition=right;points=[];portConstraint=eastwest;strokeColor=inherit;" vertex="1" parent="4_Z-v-eUMZZP_KY4kg9S-23">
          <mxGeometry y="60" width="370" height="8" as="geometry" />
        </mxCell>
        <mxCell id="4_Z-v-eUMZZP_KY4kg9S-26" value="+ method(type): type" style="text;strokeColor=none;fillColor=none;align=left;verticalAlign=top;spacingLeft=4;spacingRight=4;overflow=hidden;rotatable=0;points=[[0,0.5],[1,0.5]];portConstraint=eastwest;" vertex="1" parent="4_Z-v-eUMZZP_KY4kg9S-23">
          <mxGeometry y="68" width="370" height="54" as="geometry" />
        </mxCell>
        <mxCell id="4_Z-v-eUMZZP_KY4kg9S-27" value="CloudAccount(站点账号、云账号)" style="swimlane;fontStyle=1;align=center;verticalAlign=top;childLayout=stackLayout;horizontal=1;startSize=26;horizontalStack=0;resizeParent=1;resizeParentMax=0;resizeLast=0;collapsible=1;marginBottom=0;" vertex="1" parent="1">
          <mxGeometry x="170" y="480" width="370" height="242" as="geometry" />
        </mxCell>
        <mxCell id="4_Z-v-eUMZZP_KY4kg9S-28" value="Name string //资源名称&#xa;	ProviderType.Subtype // refer to ProviderType.subtype&#xa;	Desc string //描述&#xa;	AccessKey string //&#xa;	AccessSecret string //&#xa;	user string&#xa;	password string&#xa;	region string" style="text;strokeColor=none;fillColor=none;align=left;verticalAlign=top;spacingLeft=4;spacingRight=4;overflow=hidden;rotatable=0;points=[[0,0.5],[1,0.5]];portConstraint=eastwest;" vertex="1" parent="4_Z-v-eUMZZP_KY4kg9S-27">
          <mxGeometry y="26" width="370" height="154" as="geometry" />
        </mxCell>
        <mxCell id="4_Z-v-eUMZZP_KY4kg9S-29" value="" style="line;strokeWidth=1;fillColor=none;align=left;verticalAlign=middle;spacingTop=-1;spacingLeft=3;spacingRight=3;rotatable=0;labelPosition=right;points=[];portConstraint=eastwest;strokeColor=inherit;" vertex="1" parent="4_Z-v-eUMZZP_KY4kg9S-27">
          <mxGeometry y="180" width="370" height="8" as="geometry" />
        </mxCell>
        <mxCell id="4_Z-v-eUMZZP_KY4kg9S-30" value="+ method(type): type" style="text;strokeColor=none;fillColor=none;align=left;verticalAlign=top;spacingLeft=4;spacingRight=4;overflow=hidden;rotatable=0;points=[[0,0.5],[1,0.5]];portConstraint=eastwest;" vertex="1" parent="4_Z-v-eUMZZP_KY4kg9S-27">
          <mxGeometry y="188" width="370" height="54" as="geometry" />
        </mxCell>
        <mxCell id="4_Z-v-eUMZZP_KY4kg9S-31" value="CloudHostCapacity" style="swimlane;fontStyle=1;align=center;verticalAlign=top;childLayout=stackLayout;horizontal=1;startSize=26;horizontalStack=0;resizeParent=1;resizeParentMax=0;resizeLast=0;collapsible=1;marginBottom=0;" vertex="1" parent="1">
          <mxGeometry x="-300" y="290" width="370" height="242" as="geometry" />
        </mxCell>
        <mxCell id="4_Z-v-eUMZZP_KY4kg9S-32" value="ExternalID string&#xa;	HostName string&#xa;	CPU int&#xa;	RAM int&#xa;	GPU int&#xa;	SystemSSD int&#xa;	DataHDD int&#xa;	CPUType string&#xa;	GPUType string" style="text;strokeColor=none;fillColor=none;align=left;verticalAlign=top;spacingLeft=4;spacingRight=4;overflow=hidden;rotatable=0;points=[[0,0.5],[1,0.5]];portConstraint=eastwest;" vertex="1" parent="4_Z-v-eUMZZP_KY4kg9S-31">
          <mxGeometry y="26" width="370" height="154" as="geometry" />
        </mxCell>
        <mxCell id="4_Z-v-eUMZZP_KY4kg9S-33" value="" style="line;strokeWidth=1;fillColor=none;align=left;verticalAlign=middle;spacingTop=-1;spacingLeft=3;spacingRight=3;rotatable=0;labelPosition=right;points=[];portConstraint=eastwest;strokeColor=inherit;" vertex="1" parent="4_Z-v-eUMZZP_KY4kg9S-31">
          <mxGeometry y="180" width="370" height="8" as="geometry" />
        </mxCell>
        <mxCell id="4_Z-v-eUMZZP_KY4kg9S-34" value="+ method(type): type" style="text;strokeColor=none;fillColor=none;align=left;verticalAlign=top;spacingLeft=4;spacingRight=4;overflow=hidden;rotatable=0;points=[[0,0.5],[1,0.5]];portConstraint=eastwest;" vertex="1" parent="4_Z-v-eUMZZP_KY4kg9S-31">
          <mxGeometry y="188" width="370" height="54" as="geometry" />
        </mxCell>
        <mxCell id="4_Z-v-eUMZZP_KY4kg9S-35" value="CloudStorageCapacity" style="swimlane;fontStyle=1;align=center;verticalAlign=top;childLayout=stackLayout;horizontal=1;startSize=26;horizontalStack=0;resizeParent=1;resizeParentMax=0;resizeLast=0;collapsible=1;marginBottom=0;" vertex="1" parent="1">
          <mxGeometry x="-320" y="680" width="370" height="152" as="geometry" />
        </mxCell>
        <mxCell id="4_Z-v-eUMZZP_KY4kg9S-36" value="count int&#xa;StorageTyppe string&#xa;cloudAccount string" style="text;strokeColor=none;fillColor=none;align=left;verticalAlign=top;spacingLeft=4;spacingRight=4;overflow=hidden;rotatable=0;points=[[0,0.5],[1,0.5]];portConstraint=eastwest;" vertex="1" parent="4_Z-v-eUMZZP_KY4kg9S-35">
          <mxGeometry y="26" width="370" height="64" as="geometry" />
        </mxCell>
        <mxCell id="4_Z-v-eUMZZP_KY4kg9S-37" value="" style="line;strokeWidth=1;fillColor=none;align=left;verticalAlign=middle;spacingTop=-1;spacingLeft=3;spacingRight=3;rotatable=0;labelPosition=right;points=[];portConstraint=eastwest;strokeColor=inherit;" vertex="1" parent="4_Z-v-eUMZZP_KY4kg9S-35">
          <mxGeometry y="90" width="370" height="8" as="geometry" />
        </mxCell>
        <mxCell id="4_Z-v-eUMZZP_KY4kg9S-38" value="+ method(type): type" style="text;strokeColor=none;fillColor=none;align=left;verticalAlign=top;spacingLeft=4;spacingRight=4;overflow=hidden;rotatable=0;points=[[0,0.5],[1,0.5]];portConstraint=eastwest;" vertex="1" parent="4_Z-v-eUMZZP_KY4kg9S-35">
          <mxGeometry y="98" width="370" height="54" as="geometry" />
        </mxCell>
        <mxCell id="4_Z-v-eUMZZP_KY4kg9S-39" value="CloudEIPCapacity" style="swimlane;fontStyle=1;align=center;verticalAlign=top;childLayout=stackLayout;horizontal=1;startSize=26;horizontalStack=0;resizeParent=1;resizeParentMax=0;resizeLast=0;collapsible=1;marginBottom=0;" vertex="1" parent="1">
          <mxGeometry x="630" y="310" width="370" height="152" as="geometry" />
        </mxCell>
        <mxCell id="4_Z-v-eUMZZP_KY4kg9S-40" value="Count int&#xa;Bindwidth int&#xa;CloudAccount string" style="text;strokeColor=none;fillColor=none;align=left;verticalAlign=top;spacingLeft=4;spacingRight=4;overflow=hidden;rotatable=0;points=[[0,0.5],[1,0.5]];portConstraint=eastwest;" vertex="1" parent="4_Z-v-eUMZZP_KY4kg9S-39">
          <mxGeometry y="26" width="370" height="64" as="geometry" />
        </mxCell>
        <mxCell id="4_Z-v-eUMZZP_KY4kg9S-41" value="" style="line;strokeWidth=1;fillColor=none;align=left;verticalAlign=middle;spacingTop=-1;spacingLeft=3;spacingRight=3;rotatable=0;labelPosition=right;points=[];portConstraint=eastwest;strokeColor=inherit;" vertex="1" parent="4_Z-v-eUMZZP_KY4kg9S-39">
          <mxGeometry y="90" width="370" height="8" as="geometry" />
        </mxCell>
        <mxCell id="4_Z-v-eUMZZP_KY4kg9S-42" value="+ method(type): type" style="text;strokeColor=none;fillColor=none;align=left;verticalAlign=top;spacingLeft=4;spacingRight=4;overflow=hidden;rotatable=0;points=[[0,0.5],[1,0.5]];portConstraint=eastwest;" vertex="1" parent="4_Z-v-eUMZZP_KY4kg9S-39">
          <mxGeometry y="98" width="370" height="54" as="geometry" />
        </mxCell>
        <mxCell id="4_Z-v-eUMZZP_KY4kg9S-43" value="CloudNatCapacity" style="swimlane;fontStyle=1;align=center;verticalAlign=top;childLayout=stackLayout;horizontal=1;startSize=26;horizontalStack=0;resizeParent=1;resizeParentMax=0;resizeLast=0;collapsible=1;marginBottom=0;" vertex="1" parent="1">
          <mxGeometry x="630" y="720" width="370" height="162" as="geometry" />
        </mxCell>
        <mxCell id="4_Z-v-eUMZZP_KY4kg9S-44" value="count int&#xa;NatType string&#xa;CloudAccount string" style="text;strokeColor=none;fillColor=none;align=left;verticalAlign=top;spacingLeft=4;spacingRight=4;overflow=hidden;rotatable=0;points=[[0,0.5],[1,0.5]];portConstraint=eastwest;" vertex="1" parent="4_Z-v-eUMZZP_KY4kg9S-43">
          <mxGeometry y="26" width="370" height="74" as="geometry" />
        </mxCell>
        <mxCell id="4_Z-v-eUMZZP_KY4kg9S-45" value="" style="line;strokeWidth=1;fillColor=none;align=left;verticalAlign=middle;spacingTop=-1;spacingLeft=3;spacingRight=3;rotatable=0;labelPosition=right;points=[];portConstraint=eastwest;strokeColor=inherit;" vertex="1" parent="4_Z-v-eUMZZP_KY4kg9S-43">
          <mxGeometry y="100" width="370" height="8" as="geometry" />
        </mxCell>
        <mxCell id="4_Z-v-eUMZZP_KY4kg9S-46" value="+ method(type): type" style="text;strokeColor=none;fillColor=none;align=left;verticalAlign=top;spacingLeft=4;spacingRight=4;overflow=hidden;rotatable=0;points=[[0,0.5],[1,0.5]];portConstraint=eastwest;" vertex="1" parent="4_Z-v-eUMZZP_KY4kg9S-43">
          <mxGeometry y="108" width="370" height="54" as="geometry" />
        </mxCell>
        <mxCell id="4_Z-v-eUMZZP_KY4kg9S-47" value="CloudVpcCapacity" style="swimlane;fontStyle=1;align=center;verticalAlign=top;childLayout=stackLayout;horizontal=1;startSize=26;horizontalStack=0;resizeParent=1;resizeParentMax=0;resizeLast=0;collapsible=1;marginBottom=0;" vertex="1" parent="1">
          <mxGeometry x="630" y="490" width="370" height="142" as="geometry" />
        </mxCell>
        <mxCell id="4_Z-v-eUMZZP_KY4kg9S-48" value="Count int&#xa;VpcType string&#xa;CloudAccount string" style="text;strokeColor=none;fillColor=none;align=left;verticalAlign=top;spacingLeft=4;spacingRight=4;overflow=hidden;rotatable=0;points=[[0,0.5],[1,0.5]];portConstraint=eastwest;" vertex="1" parent="4_Z-v-eUMZZP_KY4kg9S-47">
          <mxGeometry y="26" width="370" height="54" as="geometry" />
        </mxCell>
        <mxCell id="4_Z-v-eUMZZP_KY4kg9S-49" value="" style="line;strokeWidth=1;fillColor=none;align=left;verticalAlign=middle;spacingTop=-1;spacingLeft=3;spacingRight=3;rotatable=0;labelPosition=right;points=[];portConstraint=eastwest;strokeColor=inherit;" vertex="1" parent="4_Z-v-eUMZZP_KY4kg9S-47">
          <mxGeometry y="80" width="370" height="8" as="geometry" />
        </mxCell>
        <mxCell id="4_Z-v-eUMZZP_KY4kg9S-50" value="+ method(type): type" style="text;strokeColor=none;fillColor=none;align=left;verticalAlign=top;spacingLeft=4;spacingRight=4;overflow=hidden;rotatable=0;points=[[0,0.5],[1,0.5]];portConstraint=eastwest;" vertex="1" parent="4_Z-v-eUMZZP_KY4kg9S-47">
          <mxGeometry y="88" width="370" height="54" as="geometry" />
        </mxCell>
        <mxCell id="4_Z-v-eUMZZP_KY4kg9S-51" value="StorageResource" style="swimlane;fontStyle=1;align=center;verticalAlign=top;childLayout=stackLayout;horizontal=1;startSize=26;horizontalStack=0;resizeParent=1;resizeParentMax=0;resizeLast=0;collapsible=1;marginBottom=0;" vertex="1" parent="1">
          <mxGeometry x="-346" y="1870" width="370" height="172" as="geometry" />
        </mxCell>
        <mxCell id="4_Z-v-eUMZZP_KY4kg9S-52" value="TenantId string&#xa;StorageId string&#xa;StorageType string&#xa;CloudAccount string&#xa;Size string" style="text;strokeColor=none;fillColor=none;align=left;verticalAlign=top;spacingLeft=4;spacingRight=4;overflow=hidden;rotatable=0;points=[[0,0.5],[1,0.5]];portConstraint=eastwest;" vertex="1" parent="4_Z-v-eUMZZP_KY4kg9S-51">
          <mxGeometry y="26" width="370" height="84" as="geometry" />
        </mxCell>
        <mxCell id="4_Z-v-eUMZZP_KY4kg9S-53" value="" style="line;strokeWidth=1;fillColor=none;align=left;verticalAlign=middle;spacingTop=-1;spacingLeft=3;spacingRight=3;rotatable=0;labelPosition=right;points=[];portConstraint=eastwest;strokeColor=inherit;" vertex="1" parent="4_Z-v-eUMZZP_KY4kg9S-51">
          <mxGeometry y="110" width="370" height="8" as="geometry" />
        </mxCell>
        <mxCell id="4_Z-v-eUMZZP_KY4kg9S-54" value="+ method(type): type" style="text;strokeColor=none;fillColor=none;align=left;verticalAlign=top;spacingLeft=4;spacingRight=4;overflow=hidden;rotatable=0;points=[[0,0.5],[1,0.5]];portConstraint=eastwest;" vertex="1" parent="4_Z-v-eUMZZP_KY4kg9S-51">
          <mxGeometry y="118" width="370" height="54" as="geometry" />
        </mxCell>
        <mxCell id="4_Z-v-eUMZZP_KY4kg9S-55" value="EIPResource" style="swimlane;fontStyle=1;align=center;verticalAlign=top;childLayout=stackLayout;horizontal=1;startSize=26;horizontalStack=0;resizeParent=1;resizeParentMax=0;resizeLast=0;collapsible=1;marginBottom=0;" vertex="1" parent="1">
          <mxGeometry x="130" y="1830" width="370" height="162" as="geometry" />
        </mxCell>
        <mxCell id="4_Z-v-eUMZZP_KY4kg9S-56" value="TenantId string&#xa;EIPId string&#xa;type string" style="text;strokeColor=none;fillColor=none;align=left;verticalAlign=top;spacingLeft=4;spacingRight=4;overflow=hidden;rotatable=0;points=[[0,0.5],[1,0.5]];portConstraint=eastwest;" vertex="1" parent="4_Z-v-eUMZZP_KY4kg9S-55">
          <mxGeometry y="26" width="370" height="74" as="geometry" />
        </mxCell>
        <mxCell id="4_Z-v-eUMZZP_KY4kg9S-57" value="" style="line;strokeWidth=1;fillColor=none;align=left;verticalAlign=middle;spacingTop=-1;spacingLeft=3;spacingRight=3;rotatable=0;labelPosition=right;points=[];portConstraint=eastwest;strokeColor=inherit;" vertex="1" parent="4_Z-v-eUMZZP_KY4kg9S-55">
          <mxGeometry y="100" width="370" height="8" as="geometry" />
        </mxCell>
        <mxCell id="4_Z-v-eUMZZP_KY4kg9S-58" value="+ method(type): type" style="text;strokeColor=none;fillColor=none;align=left;verticalAlign=top;spacingLeft=4;spacingRight=4;overflow=hidden;rotatable=0;points=[[0,0.5],[1,0.5]];portConstraint=eastwest;" vertex="1" parent="4_Z-v-eUMZZP_KY4kg9S-55">
          <mxGeometry y="108" width="370" height="54" as="geometry" />
        </mxCell>
        <mxCell id="4_Z-v-eUMZZP_KY4kg9S-59" value="NatResource" style="swimlane;fontStyle=1;align=center;verticalAlign=top;childLayout=stackLayout;horizontal=1;startSize=26;horizontalStack=0;resizeParent=1;resizeParentMax=0;resizeLast=0;collapsible=1;marginBottom=0;" vertex="1" parent="1">
          <mxGeometry x="650" y="1770" width="370" height="222" as="geometry" />
        </mxCell>
        <mxCell id="4_Z-v-eUMZZP_KY4kg9S-60" value="TenantId string&#xa;NatId string&#xa;Name string&#xa;NatType string&#xa;RouterId string&#xa;Status string&#xa;DnatRulesLimits int" style="text;strokeColor=none;fillColor=none;align=left;verticalAlign=top;spacingLeft=4;spacingRight=4;overflow=hidden;rotatable=0;points=[[0,0.5],[1,0.5]];portConstraint=eastwest;" vertex="1" parent="4_Z-v-eUMZZP_KY4kg9S-59">
          <mxGeometry y="26" width="370" height="134" as="geometry" />
        </mxCell>
        <mxCell id="4_Z-v-eUMZZP_KY4kg9S-61" value="" style="line;strokeWidth=1;fillColor=none;align=left;verticalAlign=middle;spacingTop=-1;spacingLeft=3;spacingRight=3;rotatable=0;labelPosition=right;points=[];portConstraint=eastwest;strokeColor=inherit;" vertex="1" parent="4_Z-v-eUMZZP_KY4kg9S-59">
          <mxGeometry y="160" width="370" height="8" as="geometry" />
        </mxCell>
        <mxCell id="4_Z-v-eUMZZP_KY4kg9S-62" value="+ method(type): type" style="text;strokeColor=none;fillColor=none;align=left;verticalAlign=top;spacingLeft=4;spacingRight=4;overflow=hidden;rotatable=0;points=[[0,0.5],[1,0.5]];portConstraint=eastwest;" vertex="1" parent="4_Z-v-eUMZZP_KY4kg9S-59">
          <mxGeometry y="168" width="370" height="54" as="geometry" />
        </mxCell>
        <mxCell id="4_Z-v-eUMZZP_KY4kg9S-63" value="VPCResource" style="swimlane;fontStyle=1;align=center;verticalAlign=top;childLayout=stackLayout;horizontal=1;startSize=26;horizontalStack=0;resizeParent=1;resizeParentMax=0;resizeLast=0;collapsible=1;marginBottom=0;" vertex="1" parent="1">
          <mxGeometry x="140" y="1510" width="370" height="162" as="geometry" />
        </mxCell>
        <mxCell id="4_Z-v-eUMZZP_KY4kg9S-64" value="TenantId string&#xa;VpcId string&#xa;VpcName string&#xa;Description string&#xa;Cird string&#xa;" style="text;strokeColor=none;fillColor=none;align=left;verticalAlign=top;spacingLeft=4;spacingRight=4;overflow=hidden;rotatable=0;points=[[0,0.5],[1,0.5]];portConstraint=eastwest;" vertex="1" parent="4_Z-v-eUMZZP_KY4kg9S-63">
          <mxGeometry y="26" width="370" height="74" as="geometry" />
        </mxCell>
        <mxCell id="4_Z-v-eUMZZP_KY4kg9S-65" value="" style="line;strokeWidth=1;fillColor=none;align=left;verticalAlign=middle;spacingTop=-1;spacingLeft=3;spacingRight=3;rotatable=0;labelPosition=right;points=[];portConstraint=eastwest;strokeColor=inherit;" vertex="1" parent="4_Z-v-eUMZZP_KY4kg9S-63">
          <mxGeometry y="100" width="370" height="8" as="geometry" />
        </mxCell>
        <mxCell id="4_Z-v-eUMZZP_KY4kg9S-66" value="+ method(type): type" style="text;strokeColor=none;fillColor=none;align=left;verticalAlign=top;spacingLeft=4;spacingRight=4;overflow=hidden;rotatable=0;points=[[0,0.5],[1,0.5]];portConstraint=eastwest;" vertex="1" parent="4_Z-v-eUMZZP_KY4kg9S-63">
          <mxGeometry y="108" width="370" height="54" as="geometry" />
        </mxCell>
        <mxCell id="4_Z-v-eUMZZP_KY4kg9S-67" value="InstanceFlavor" style="swimlane;fontStyle=1;align=center;verticalAlign=top;childLayout=stackLayout;horizontal=1;startSize=26;horizontalStack=0;resizeParent=1;resizeParentMax=0;resizeLast=0;collapsible=1;marginBottom=0;" vertex="1" parent="1">
          <mxGeometry x="170" y="850" width="370" height="252" as="geometry" />
        </mxCell>
        <mxCell id="4_Z-v-eUMZZP_KY4kg9S-68" value="Id string&#xa;	Name string&#xa;CloudType string&#xa;Category string&#xa;	Vcpus int&#xa;	Ram int64&#xa;	Disk int64&#xa;	GPU int&#xa;	CpuArch string" style="text;strokeColor=none;fillColor=none;align=left;verticalAlign=top;spacingLeft=4;spacingRight=4;overflow=hidden;rotatable=0;points=[[0,0.5],[1,0.5]];portConstraint=eastwest;" vertex="1" parent="4_Z-v-eUMZZP_KY4kg9S-67">
          <mxGeometry y="26" width="370" height="164" as="geometry" />
        </mxCell>
        <mxCell id="4_Z-v-eUMZZP_KY4kg9S-69" value="" style="line;strokeWidth=1;fillColor=none;align=left;verticalAlign=middle;spacingTop=-1;spacingLeft=3;spacingRight=3;rotatable=0;labelPosition=right;points=[];portConstraint=eastwest;strokeColor=inherit;" vertex="1" parent="4_Z-v-eUMZZP_KY4kg9S-67">
          <mxGeometry y="190" width="370" height="8" as="geometry" />
        </mxCell>
        <mxCell id="4_Z-v-eUMZZP_KY4kg9S-70" value="+ method(type): type" style="text;strokeColor=none;fillColor=none;align=left;verticalAlign=top;spacingLeft=4;spacingRight=4;overflow=hidden;rotatable=0;points=[[0,0.5],[1,0.5]];portConstraint=eastwest;" vertex="1" parent="4_Z-v-eUMZZP_KY4kg9S-67">
          <mxGeometry y="198" width="370" height="54" as="geometry" />
        </mxCell>
        <mxCell id="4_Z-v-eUMZZP_KY4kg9S-71" value="Wallet" style="swimlane;fontStyle=1;align=center;verticalAlign=top;childLayout=stackLayout;horizontal=1;startSize=26;horizontalStack=0;resizeParent=1;resizeParentMax=0;resizeLast=0;collapsible=1;marginBottom=0;" vertex="1" parent="1">
          <mxGeometry x="-310" y="2660" width="370" height="162" as="geometry" />
        </mxCell>
        <mxCell id="4_Z-v-eUMZZP_KY4kg9S-72" value="TenantId string //租户id&#xa;	Balance string //余额&#xa;	CumulativeRechargeAmount string //累计充值金额" style="text;strokeColor=none;fillColor=none;align=left;verticalAlign=top;spacingLeft=4;spacingRight=4;overflow=hidden;rotatable=0;points=[[0,0.5],[1,0.5]];portConstraint=eastwest;" vertex="1" parent="4_Z-v-eUMZZP_KY4kg9S-71">
          <mxGeometry y="26" width="370" height="74" as="geometry" />
        </mxCell>
        <mxCell id="4_Z-v-eUMZZP_KY4kg9S-73" value="" style="line;strokeWidth=1;fillColor=none;align=left;verticalAlign=middle;spacingTop=-1;spacingLeft=3;spacingRight=3;rotatable=0;labelPosition=right;points=[];portConstraint=eastwest;strokeColor=inherit;" vertex="1" parent="4_Z-v-eUMZZP_KY4kg9S-71">
          <mxGeometry y="100" width="370" height="8" as="geometry" />
        </mxCell>
        <mxCell id="4_Z-v-eUMZZP_KY4kg9S-74" value="+ method(type): type" style="text;strokeColor=none;fillColor=none;align=left;verticalAlign=top;spacingLeft=4;spacingRight=4;overflow=hidden;rotatable=0;points=[[0,0.5],[1,0.5]];portConstraint=eastwest;" vertex="1" parent="4_Z-v-eUMZZP_KY4kg9S-71">
          <mxGeometry y="108" width="370" height="54" as="geometry" />
        </mxCell>
        <mxCell id="4_Z-v-eUMZZP_KY4kg9S-75" value="RechargeRecord" style="swimlane;fontStyle=1;align=center;verticalAlign=top;childLayout=stackLayout;horizontal=1;startSize=26;horizontalStack=0;resizeParent=1;resizeParentMax=0;resizeLast=0;collapsible=1;marginBottom=0;" vertex="1" parent="1">
          <mxGeometry x="520" y="2693" width="370" height="142" as="geometry" />
        </mxCell>
        <mxCell id="4_Z-v-eUMZZP_KY4kg9S-76" value="TenantId string //租户Id&#xa;	Recharge string //充值金额" style="text;strokeColor=none;fillColor=none;align=left;verticalAlign=top;spacingLeft=4;spacingRight=4;overflow=hidden;rotatable=0;points=[[0,0.5],[1,0.5]];portConstraint=eastwest;" vertex="1" parent="4_Z-v-eUMZZP_KY4kg9S-75">
          <mxGeometry y="26" width="370" height="54" as="geometry" />
        </mxCell>
        <mxCell id="4_Z-v-eUMZZP_KY4kg9S-77" value="" style="line;strokeWidth=1;fillColor=none;align=left;verticalAlign=middle;spacingTop=-1;spacingLeft=3;spacingRight=3;rotatable=0;labelPosition=right;points=[];portConstraint=eastwest;strokeColor=inherit;" vertex="1" parent="4_Z-v-eUMZZP_KY4kg9S-75">
          <mxGeometry y="80" width="370" height="8" as="geometry" />
        </mxCell>
        <mxCell id="4_Z-v-eUMZZP_KY4kg9S-78" value="+ method(type): type" style="text;strokeColor=none;fillColor=none;align=left;verticalAlign=top;spacingLeft=4;spacingRight=4;overflow=hidden;rotatable=0;points=[[0,0.5],[1,0.5]];portConstraint=eastwest;" vertex="1" parent="4_Z-v-eUMZZP_KY4kg9S-75">
          <mxGeometry y="88" width="370" height="54" as="geometry" />
        </mxCell>
        <mxCell id="4_Z-v-eUMZZP_KY4kg9S-79" value="Consumption" style="swimlane;fontStyle=1;align=center;verticalAlign=top;childLayout=stackLayout;horizontal=1;startSize=26;horizontalStack=0;resizeParent=1;resizeParentMax=0;resizeLast=0;collapsible=1;marginBottom=0;" vertex="1" parent="1">
          <mxGeometry x="-160" y="2870" width="370" height="142" as="geometry" />
        </mxCell>
        <mxCell id="4_Z-v-eUMZZP_KY4kg9S-80" value="TenantId string //租户ID&#xa;	CommodityId string //购买的商品id,商品里边包含站点信息&#xa;	ConsumptionAmount string //消费金额	" style="text;strokeColor=none;fillColor=none;align=left;verticalAlign=top;spacingLeft=4;spacingRight=4;overflow=hidden;rotatable=0;points=[[0,0.5],[1,0.5]];portConstraint=eastwest;" vertex="1" parent="4_Z-v-eUMZZP_KY4kg9S-79">
          <mxGeometry y="26" width="370" height="54" as="geometry" />
        </mxCell>
        <mxCell id="4_Z-v-eUMZZP_KY4kg9S-81" value="" style="line;strokeWidth=1;fillColor=none;align=left;verticalAlign=middle;spacingTop=-1;spacingLeft=3;spacingRight=3;rotatable=0;labelPosition=right;points=[];portConstraint=eastwest;strokeColor=inherit;" vertex="1" parent="4_Z-v-eUMZZP_KY4kg9S-79">
          <mxGeometry y="80" width="370" height="8" as="geometry" />
        </mxCell>
        <mxCell id="4_Z-v-eUMZZP_KY4kg9S-82" value="+ method(type): type" style="text;strokeColor=none;fillColor=none;align=left;verticalAlign=top;spacingLeft=4;spacingRight=4;overflow=hidden;rotatable=0;points=[[0,0.5],[1,0.5]];portConstraint=eastwest;" vertex="1" parent="4_Z-v-eUMZZP_KY4kg9S-79">
          <mxGeometry y="88" width="370" height="54" as="geometry" />
        </mxCell>
        <mxCell id="4_Z-v-eUMZZP_KY4kg9S-83" value="Invoice" style="swimlane;fontStyle=1;align=center;verticalAlign=top;childLayout=stackLayout;horizontal=1;startSize=26;horizontalStack=0;resizeParent=1;resizeParentMax=0;resizeLast=0;collapsible=1;marginBottom=0;" vertex="1" parent="1">
          <mxGeometry x="250" y="2860" width="370" height="142" as="geometry" />
        </mxCell>
        <mxCell id="4_Z-v-eUMZZP_KY4kg9S-84" value="ConsumptionId []string//商品IDs&#xa;	Amount string //总金额" style="text;strokeColor=none;fillColor=none;align=left;verticalAlign=top;spacingLeft=4;spacingRight=4;overflow=hidden;rotatable=0;points=[[0,0.5],[1,0.5]];portConstraint=eastwest;" vertex="1" parent="4_Z-v-eUMZZP_KY4kg9S-83">
          <mxGeometry y="26" width="370" height="54" as="geometry" />
        </mxCell>
        <mxCell id="4_Z-v-eUMZZP_KY4kg9S-85" value="" style="line;strokeWidth=1;fillColor=none;align=left;verticalAlign=middle;spacingTop=-1;spacingLeft=3;spacingRight=3;rotatable=0;labelPosition=right;points=[];portConstraint=eastwest;strokeColor=inherit;" vertex="1" parent="4_Z-v-eUMZZP_KY4kg9S-83">
          <mxGeometry y="80" width="370" height="8" as="geometry" />
        </mxCell>
        <mxCell id="4_Z-v-eUMZZP_KY4kg9S-86" value="+ method(type): type" style="text;strokeColor=none;fillColor=none;align=left;verticalAlign=top;spacingLeft=4;spacingRight=4;overflow=hidden;rotatable=0;points=[[0,0.5],[1,0.5]];portConstraint=eastwest;" vertex="1" parent="4_Z-v-eUMZZP_KY4kg9S-83">
          <mxGeometry y="88" width="370" height="54" as="geometry" />
        </mxCell>
        <mxCell id="4_Z-v-eUMZZP_KY4kg9S-87" value="InstanceResource" style="swimlane;fontStyle=1;align=center;verticalAlign=top;childLayout=stackLayout;horizontal=1;startSize=26;horizontalStack=0;resizeParent=1;resizeParentMax=0;resizeLast=0;collapsible=1;marginBottom=0;" vertex="1" parent="1">
          <mxGeometry x="-320" y="1578" width="370" height="172" as="geometry" />
        </mxCell>
        <mxCell id="4_Z-v-eUMZZP_KY4kg9S-88" value="TenantId string&#xa;StorageId string&#xa;StorageType string&#xa;CloudAccount string&#xa;Size string" style="text;strokeColor=none;fillColor=none;align=left;verticalAlign=top;spacingLeft=4;spacingRight=4;overflow=hidden;rotatable=0;points=[[0,0.5],[1,0.5]];portConstraint=eastwest;" vertex="1" parent="4_Z-v-eUMZZP_KY4kg9S-87">
          <mxGeometry y="26" width="370" height="84" as="geometry" />
        </mxCell>
        <mxCell id="4_Z-v-eUMZZP_KY4kg9S-89" value="" style="line;strokeWidth=1;fillColor=none;align=left;verticalAlign=middle;spacingTop=-1;spacingLeft=3;spacingRight=3;rotatable=0;labelPosition=right;points=[];portConstraint=eastwest;strokeColor=inherit;" vertex="1" parent="4_Z-v-eUMZZP_KY4kg9S-87">
          <mxGeometry y="110" width="370" height="8" as="geometry" />
        </mxCell>
        <mxCell id="4_Z-v-eUMZZP_KY4kg9S-90" value="+ method(type): type" style="text;strokeColor=none;fillColor=none;align=left;verticalAlign=top;spacingLeft=4;spacingRight=4;overflow=hidden;rotatable=0;points=[[0,0.5],[1,0.5]];portConstraint=eastwest;" vertex="1" parent="4_Z-v-eUMZZP_KY4kg9S-87">
          <mxGeometry y="118" width="370" height="54" as="geometry" />
        </mxCell>
        <mxCell id="4_Z-v-eUMZZP_KY4kg9S-91" value="SubnetResource" style="swimlane;fontStyle=1;align=center;verticalAlign=top;childLayout=stackLayout;horizontal=1;startSize=26;horizontalStack=0;resizeParent=1;resizeParentMax=0;resizeLast=0;collapsible=1;marginBottom=0;" vertex="1" parent="1">
          <mxGeometry x="650" y="1490" width="370" height="222" as="geometry" />
        </mxCell>
        <mxCell id="4_Z-v-eUMZZP_KY4kg9S-92" value="TenantId string&#xa;Id string&#xa;Name string&#xa;Cidr string&#xa;Status string&#xa;VpcId string&#xa;GatewayIp string&#xa;" style="text;strokeColor=none;fillColor=none;align=left;verticalAlign=top;spacingLeft=4;spacingRight=4;overflow=hidden;rotatable=0;points=[[0,0.5],[1,0.5]];portConstraint=eastwest;" vertex="1" parent="4_Z-v-eUMZZP_KY4kg9S-91">
          <mxGeometry y="26" width="370" height="134" as="geometry" />
        </mxCell>
        <mxCell id="4_Z-v-eUMZZP_KY4kg9S-93" value="" style="line;strokeWidth=1;fillColor=none;align=left;verticalAlign=middle;spacingTop=-1;spacingLeft=3;spacingRight=3;rotatable=0;labelPosition=right;points=[];portConstraint=eastwest;strokeColor=inherit;" vertex="1" parent="4_Z-v-eUMZZP_KY4kg9S-91">
          <mxGeometry y="160" width="370" height="8" as="geometry" />
        </mxCell>
        <mxCell id="4_Z-v-eUMZZP_KY4kg9S-94" value="+ method(type): type" style="text;strokeColor=none;fillColor=none;align=left;verticalAlign=top;spacingLeft=4;spacingRight=4;overflow=hidden;rotatable=0;points=[[0,0.5],[1,0.5]];portConstraint=eastwest;" vertex="1" parent="4_Z-v-eUMZZP_KY4kg9S-91">
          <mxGeometry y="168" width="370" height="54" as="geometry" />
        </mxCell>
        <mxCell id="4_Z-v-eUMZZP_KY4kg9S-95" value="" style="endArrow=classic;html=1;rounded=0;entryX=0;entryY=0.5;entryDx=0;entryDy=0;exitX=1;exitY=0.5;exitDx=0;exitDy=0;" edge="1" parent="1" source="4_Z-v-eUMZZP_KY4kg9S-88" target="4_Z-v-eUMZZP_KY4kg9S-64">
          <mxGeometry width="50" height="50" relative="1" as="geometry">
            <mxPoint x="100" y="1780" as="sourcePoint" />
            <mxPoint x="150" y="1730" as="targetPoint" />
          </mxGeometry>
        </mxCell>
        <mxCell id="4_Z-v-eUMZZP_KY4kg9S-96" value="" style="endArrow=classic;html=1;rounded=0;exitX=1;exitY=0.5;exitDx=0;exitDy=0;entryX=0.25;entryY=0;entryDx=0;entryDy=0;" edge="1" parent="1" source="4_Z-v-eUMZZP_KY4kg9S-88" target="4_Z-v-eUMZZP_KY4kg9S-55">
          <mxGeometry width="50" height="50" relative="1" as="geometry">
            <mxPoint x="380" y="1750" as="sourcePoint" />
            <mxPoint x="430" y="1700" as="targetPoint" />
          </mxGeometry>
        </mxCell>
        <mxCell id="4_Z-v-eUMZZP_KY4kg9S-98" value="" style="endArrow=classic;startArrow=classic;html=1;rounded=0;entryX=0.001;entryY=0.403;entryDx=0;entryDy=0;entryPerimeter=0;exitX=1;exitY=0.5;exitDx=0;exitDy=0;" edge="1" parent="1" source="4_Z-v-eUMZZP_KY4kg9S-64" target="4_Z-v-eUMZZP_KY4kg9S-92">
          <mxGeometry width="50" height="50" relative="1" as="geometry">
            <mxPoint x="570" y="1620" as="sourcePoint" />
            <mxPoint x="620" y="1570" as="targetPoint" />
          </mxGeometry>
        </mxCell>
        <mxCell id="4_Z-v-eUMZZP_KY4kg9S-99" value="" style="endArrow=classic;startArrow=classic;html=1;rounded=0;entryX=0;entryY=0.5;entryDx=0;entryDy=0;exitX=1;exitY=0.5;exitDx=0;exitDy=0;" edge="1" parent="1" source="4_Z-v-eUMZZP_KY4kg9S-64" target="4_Z-v-eUMZZP_KY4kg9S-60">
          <mxGeometry width="50" height="50" relative="1" as="geometry">
            <mxPoint x="490" y="1770" as="sourcePoint" />
            <mxPoint x="540" y="1720" as="targetPoint" />
          </mxGeometry>
        </mxCell>
        <mxCell id="4_Z-v-eUMZZP_KY4kg9S-100" value="" style="endArrow=classic;html=1;rounded=0;exitX=0.43;exitY=0.985;exitDx=0;exitDy=0;exitPerimeter=0;" edge="1" parent="1" source="4_Z-v-eUMZZP_KY4kg9S-90" target="4_Z-v-eUMZZP_KY4kg9S-51">
          <mxGeometry width="50" height="50" relative="1" as="geometry">
            <mxPoint x="-190" y="1840" as="sourcePoint" />
            <mxPoint x="-140" y="1790" as="targetPoint" />
          </mxGeometry>
        </mxCell>
        <mxCell id="4_Z-v-eUMZZP_KY4kg9S-101" value="" style="endArrow=classic;html=1;rounded=0;entryX=0.001;entryY=0.608;entryDx=0;entryDy=0;entryPerimeter=0;exitX=1;exitY=0.5;exitDx=0;exitDy=0;" edge="1" parent="1" source="4_Z-v-eUMZZP_KY4kg9S-32" target="4_Z-v-eUMZZP_KY4kg9S-28">
          <mxGeometry width="50" height="50" relative="1" as="geometry">
            <mxPoint x="200" y="460" as="sourcePoint" />
            <mxPoint x="250" y="410" as="targetPoint" />
          </mxGeometry>
        </mxCell>
        <mxCell id="4_Z-v-eUMZZP_KY4kg9S-102" value="" style="endArrow=classic;html=1;rounded=0;entryX=-0.002;entryY=0.608;entryDx=0;entryDy=0;entryPerimeter=0;exitX=1.007;exitY=0.675;exitDx=0;exitDy=0;exitPerimeter=0;" edge="1" parent="1" source="4_Z-v-eUMZZP_KY4kg9S-36" target="4_Z-v-eUMZZP_KY4kg9S-28">
          <mxGeometry width="50" height="50" relative="1" as="geometry">
            <mxPoint x="100" y="670" as="sourcePoint" />
            <mxPoint x="150" y="620" as="targetPoint" />
          </mxGeometry>
        </mxCell>
        <mxCell id="4_Z-v-eUMZZP_KY4kg9S-103" value="" style="endArrow=classic;html=1;rounded=0;entryX=1;entryY=0.5;entryDx=0;entryDy=0;exitX=0;exitY=0.5;exitDx=0;exitDy=0;" edge="1" parent="1" source="4_Z-v-eUMZZP_KY4kg9S-40" target="4_Z-v-eUMZZP_KY4kg9S-28">
          <mxGeometry width="50" height="50" relative="1" as="geometry">
            <mxPoint x="610" y="250" as="sourcePoint" />
            <mxPoint x="460" y="370" as="targetPoint" />
          </mxGeometry>
        </mxCell>
        <mxCell id="4_Z-v-eUMZZP_KY4kg9S-104" value="" style="endArrow=classic;html=1;rounded=0;entryX=1;entryY=0.5;entryDx=0;entryDy=0;exitX=0;exitY=0.5;exitDx=0;exitDy=0;" edge="1" parent="1" source="4_Z-v-eUMZZP_KY4kg9S-48" target="4_Z-v-eUMZZP_KY4kg9S-28">
          <mxGeometry width="50" height="50" relative="1" as="geometry">
            <mxPoint x="540" y="690" as="sourcePoint" />
            <mxPoint x="590" y="640" as="targetPoint" />
          </mxGeometry>
        </mxCell>
        <mxCell id="4_Z-v-eUMZZP_KY4kg9S-105" value="" style="endArrow=classic;html=1;rounded=0;entryX=1;entryY=0.5;entryDx=0;entryDy=0;exitX=0;exitY=0.5;exitDx=0;exitDy=0;" edge="1" parent="1" source="4_Z-v-eUMZZP_KY4kg9S-44" target="4_Z-v-eUMZZP_KY4kg9S-28">
          <mxGeometry width="50" height="50" relative="1" as="geometry">
            <mxPoint x="540" y="810" as="sourcePoint" />
            <mxPoint x="590" y="760" as="targetPoint" />
          </mxGeometry>
        </mxCell>
        <mxCell id="4_Z-v-eUMZZP_KY4kg9S-106" value="" style="endArrow=classic;html=1;rounded=0;entryX=0.513;entryY=1.03;entryDx=0;entryDy=0;entryPerimeter=0;" edge="1" parent="1" source="4_Z-v-eUMZZP_KY4kg9S-67" target="4_Z-v-eUMZZP_KY4kg9S-30">
          <mxGeometry width="50" height="50" relative="1" as="geometry">
            <mxPoint x="310" y="810" as="sourcePoint" />
            <mxPoint x="360" y="760" as="targetPoint" />
          </mxGeometry>
        </mxCell>
        <mxCell id="4_Z-v-eUMZZP_KY4kg9S-107" value="" style="endArrow=classic;html=1;rounded=0;entryX=1;entryY=0.5;entryDx=0;entryDy=0;exitX=0.5;exitY=0;exitDx=0;exitDy=0;" edge="1" parent="1" source="4_Z-v-eUMZZP_KY4kg9S-27" target="4_Z-v-eUMZZP_KY4kg9S-2">
          <mxGeometry width="50" height="50" relative="1" as="geometry">
            <mxPoint x="340" y="250" as="sourcePoint" />
            <mxPoint x="390" y="200" as="targetPoint" />
          </mxGeometry>
        </mxCell>
        <mxCell id="4_Z-v-eUMZZP_KY4kg9S-108" value="Tenant" style="swimlane;fontStyle=1;align=center;verticalAlign=top;childLayout=stackLayout;horizontal=1;startSize=26;horizontalStack=0;resizeParent=1;resizeParentMax=0;resizeLast=0;collapsible=1;marginBottom=0;" vertex="1" parent="1">
          <mxGeometry x="80" y="2430" width="370" height="162" as="geometry" />
        </mxCell>
        <mxCell id="4_Z-v-eUMZZP_KY4kg9S-109" value="TenantId string //租户id&#xa;Role string&#xa;Name string&#xa;Type string // eg.saas&#xa;" style="text;strokeColor=none;fillColor=none;align=left;verticalAlign=top;spacingLeft=4;spacingRight=4;overflow=hidden;rotatable=0;points=[[0,0.5],[1,0.5]];portConstraint=eastwest;" vertex="1" parent="4_Z-v-eUMZZP_KY4kg9S-108">
          <mxGeometry y="26" width="370" height="74" as="geometry" />
        </mxCell>
        <mxCell id="4_Z-v-eUMZZP_KY4kg9S-110" value="" style="line;strokeWidth=1;fillColor=none;align=left;verticalAlign=middle;spacingTop=-1;spacingLeft=3;spacingRight=3;rotatable=0;labelPosition=right;points=[];portConstraint=eastwest;strokeColor=inherit;" vertex="1" parent="4_Z-v-eUMZZP_KY4kg9S-108">
          <mxGeometry y="100" width="370" height="8" as="geometry" />
        </mxCell>
        <mxCell id="4_Z-v-eUMZZP_KY4kg9S-111" value="+ method(type): type" style="text;strokeColor=none;fillColor=none;align=left;verticalAlign=top;spacingLeft=4;spacingRight=4;overflow=hidden;rotatable=0;points=[[0,0.5],[1,0.5]];portConstraint=eastwest;" vertex="1" parent="4_Z-v-eUMZZP_KY4kg9S-108">
          <mxGeometry y="108" width="370" height="54" as="geometry" />
        </mxCell>
        <mxCell id="4_Z-v-eUMZZP_KY4kg9S-112" value="" style="endArrow=classic;html=1;rounded=0;entryX=0.5;entryY=1.059;entryDx=0;entryDy=0;exitX=0.5;exitY=0;exitDx=0;exitDy=0;entryPerimeter=0;" edge="1" parent="1" source="4_Z-v-eUMZZP_KY4kg9S-71" target="4_Z-v-eUMZZP_KY4kg9S-111">
          <mxGeometry width="50" height="50" relative="1" as="geometry">
            <mxPoint x="-260" y="2600" as="sourcePoint" />
            <mxPoint x="-210" y="2550" as="targetPoint" />
          </mxGeometry>
        </mxCell>
        <mxCell id="4_Z-v-eUMZZP_KY4kg9S-113" value="" style="endArrow=classic;html=1;rounded=0;entryX=0.504;entryY=1;entryDx=0;entryDy=0;entryPerimeter=0;exitX=0.5;exitY=0;exitDx=0;exitDy=0;" edge="1" parent="1" source="4_Z-v-eUMZZP_KY4kg9S-79" target="4_Z-v-eUMZZP_KY4kg9S-111">
          <mxGeometry width="50" height="50" relative="1" as="geometry">
            <mxPoint x="110" y="2830" as="sourcePoint" />
            <mxPoint x="160" y="2780" as="targetPoint" />
          </mxGeometry>
        </mxCell>
        <mxCell id="4_Z-v-eUMZZP_KY4kg9S-114" value="" style="endArrow=classic;html=1;rounded=0;entryX=0.504;entryY=1.015;entryDx=0;entryDy=0;entryPerimeter=0;exitX=0.5;exitY=0;exitDx=0;exitDy=0;" edge="1" parent="1" source="4_Z-v-eUMZZP_KY4kg9S-83" target="4_Z-v-eUMZZP_KY4kg9S-111">
          <mxGeometry width="50" height="50" relative="1" as="geometry">
            <mxPoint x="370" y="2830" as="sourcePoint" />
            <mxPoint x="420" y="2780" as="targetPoint" />
          </mxGeometry>
        </mxCell>
        <mxCell id="4_Z-v-eUMZZP_KY4kg9S-115" value="" style="endArrow=classic;html=1;rounded=0;entryX=0.511;entryY=1.074;entryDx=0;entryDy=0;exitX=0.5;exitY=0;exitDx=0;exitDy=0;entryPerimeter=0;" edge="1" parent="1" source="4_Z-v-eUMZZP_KY4kg9S-75" target="4_Z-v-eUMZZP_KY4kg9S-111">
          <mxGeometry width="50" height="50" relative="1" as="geometry">
            <mxPoint x="640" y="2580" as="sourcePoint" />
            <mxPoint x="690" y="2530" as="targetPoint" />
          </mxGeometry>
        </mxCell>
      </root>
    </mxGraphModel>
  </diagram>
</mxfile>
